REM DIRINDEX 1\2,1\3,1\4,1\5
REM DIRNAME cjc004,folder01,folder02,folder03,folder04
TITLE ""
FILE "1Q_t_1377-1386.mp3" MP3
  TRACK 01 AUDIO
    TITLE "3:cjc004_5036"
    INDEX 01 00:00:00
  TRACK 02 AUDIO
    TITLE "0:"
    INDEX 01 00:01:05
  TRACK 03 AUDIO
    TITLE "4:cjc004_5037"
    INDEX 01 00:01:34
  TRACK 04 AUDIO
    TITLE "0:"
    INDEX 01 00:03:23
  TRACK 05 AUDIO
    TITLE "5:cjc004_5038"
    INDEX 01 00:03:47
  TRACK 06 AUDIO
    TITLE "0:"
    INDEX 01 00:07:58
  TRACK 07 AUDIO
    TITLE "3:cjc004_5039"
    INDEX 01 00:08:32
  TRACK 08 AUDIO
    TITLE "0:"
    INDEX 01 00:10:02
  TRACK 09 AUDIO
    TITLE "4:cjc004_5040"
    INDEX 01 00:10:21
  TRACK 10 AUDIO
    TITLE "0:"
    INDEX 01 00:11:54
  TRACK 11 AUDIO
    TITLE "5:cjc004_5041"
    INDEX 01 00:12:05
  TRACK 12 AUDIO
    TITLE "0:"
    INDEX 01 00:16:40
  TRACK 13 AUDIO
    TITLE "3:cjc004_5042"
    INDEX 01 00:17:16
  TRACK 14 AUDIO
    TITLE "0:"
    INDEX 01 00:18:29
  TRACK 15 AUDIO
    TITLE "4:cjc004_5043"
    INDEX 01 00:18:58
  TRACK 16 AUDIO
    TITLE "0:"
    INDEX 01 00:20:10
  TRACK 17 AUDIO
    TITLE "5:cjc004_5044"
    INDEX 01 00:20:36
  TRACK 18 AUDIO
    TITLE "0:"
    INDEX 01 00:24:14
  TRACK 19 AUDIO
    TITLE "3:cjc004_5045"
    INDEX 01 00:24:69
  TRACK 20 AUDIO
    TITLE "0:"
    INDEX 01 00:26:24
  TRACK 21 AUDIO
    TITLE "4:cjc004_5046"
    INDEX 01 00:26:50
  TRACK 22 AUDIO
    TITLE "0:"
    INDEX 01 00:27:67
  TRACK 23 AUDIO
    TITLE "5:cjc004_5047"
    INDEX 01 00:28:21
  TRACK 24 AUDIO
    TITLE "0:"
    INDEX 01 00:33:22
  TRACK 25 AUDIO
    TITLE "3:cjc004_5048"
    INDEX 01 00:33:73
  TRACK 26 AUDIO
    TITLE "0:"
    INDEX 01 00:35:17
  TRACK 27 AUDIO
    TITLE "4:cjc004_5049"
    INDEX 01 00:35:47
  TRACK 28 AUDIO
    TITLE "0:"
    INDEX 01 00:36:74
  TRACK 29 AUDIO
    TITLE "5:cjc004_5050"
    INDEX 01 00:37:26
  TRACK 30 AUDIO
    TITLE "0:"
    INDEX 01 00:43:07
  TRACK 31 AUDIO
    TITLE "3:cjc004_5051"
    INDEX 01 00:43:60
  TRACK 32 AUDIO
    TITLE "0:"
    INDEX 01 00:44:65
  TRACK 33 AUDIO
    TITLE "4:cjc004_5052"
    INDEX 01 00:45:18
  TRACK 34 AUDIO
    TITLE "0:"
    INDEX 01 00:46:56
  TRACK 35 AUDIO
    TITLE "5:cjc004_5053"
    INDEX 01 00:47:07
  TRACK 36 AUDIO
    TITLE "0:"
    INDEX 01 00:51:65
  TRACK 37 AUDIO
    TITLE "3:cjc004_5054"
    INDEX 01 00:52:39
  TRACK 38 AUDIO
    TITLE "0:"
    INDEX 01 00:53:58
  TRACK 39 AUDIO
    TITLE "4:cjc004_5055"
    INDEX 01 00:54:13
  TRACK 40 AUDIO
    TITLE "0:"
    INDEX 01 00:55:38
  TRACK 41 AUDIO
    TITLE "5:cjc004_5056"
    INDEX 01 00:55:65
  TRACK 42 AUDIO
    TITLE "0:"
    INDEX 01 00:59:61
  TRACK 43 AUDIO
    TITLE "3:cjc004_5057"
    INDEX 01 01:00:37
  TRACK 44 AUDIO
    TITLE "0:"
    INDEX 01 01:01:46
  TRACK 45 AUDIO
    TITLE "4:cjc004_5058"
    INDEX 01 01:01:70
  TRACK 46 AUDIO
    TITLE "0:"
    INDEX 01 01:03:26
  TRACK 47 AUDIO
    TITLE "5:cjc004_5059"
    INDEX 01 01:03:45
  TRACK 48 AUDIO
    TITLE "0:"
    INDEX 01 01:08:29
  TRACK 49 AUDIO
    TITLE "3:cjc004_5060"
    INDEX 01 01:09:07
  TRACK 50 AUDIO
    TITLE "0:"
    INDEX 01 01:10:20
  TRACK 51 AUDIO
    TITLE "4:cjc004_5061"
    INDEX 01 01:10:45
  TRACK 52 AUDIO
    TITLE "0:"
    INDEX 01 01:11:43
  TRACK 53 AUDIO
    TITLE "5:cjc004_5062"
    INDEX 01 01:11:68
  TRACK 54 AUDIO
    TITLE "0:"
    INDEX 01 01:16:18
  TRACK 55 AUDIO
    TITLE "3:cjc004_5063"
    INDEX 01 01:16:71
  TRACK 56 AUDIO
    TITLE "0:"
    INDEX 01 01:17:71
  TRACK 57 AUDIO
    TITLE "4:cjc004_5064"
    INDEX 01 01:18:19
  TRACK 58 AUDIO
    TITLE "0:"
    INDEX 01 01:19:19
  TRACK 59 AUDIO
    TITLE "5:cjc004_5065"
    INDEX 01 01:19:40
  TRACK 60 AUDIO
    TITLE "0:"
    INDEX 01 01:25:09
